<svg width="238" height="34" viewBox="0 0 238 34" fill="none" xmlns="http://www.w3.org/2000/svg">
<path d="M227.782 0H237.846V33.0424H227.782V0Z" fill="#F6F7F8" fill-opacity="0.972549"/>
<path d="M213.257 0H223.321V33.0424H213.257V0Z" fill="#F6F7F8" fill-opacity="0.972549"/>
<path d="M195.726 8.23828C200.001 8.23828 203.267 9.20313 205.523 11.1328C207.779 13.0328 208.907 15.9719 208.907 19.9501V33.0423H199.556V29.8361C198.398 32.2704 196.097 33.4876 192.653 33.4876C190.724 33.4876 189.076 33.1611 187.71 32.5079C186.374 31.8251 185.35 30.9197 184.638 29.7915C183.955 28.6337 183.613 27.3423 183.613 25.9173C183.613 23.5126 184.534 21.6868 186.374 20.4399C188.215 19.193 191.006 18.5696 194.746 18.5696H198.799C198.472 16.6696 196.943 15.7196 194.212 15.7196C193.113 15.7196 192 15.8977 190.872 16.254C189.744 16.5805 188.779 17.0407 187.977 17.6344L184.771 10.9992C186.167 10.1383 187.844 9.47032 189.803 8.99532C191.792 8.49063 193.767 8.23828 195.726 8.23828ZM195.681 27.4314C196.394 27.4314 197.032 27.2384 197.596 26.8524C198.16 26.4665 198.576 25.8876 198.843 25.1157V23.4235H196.349C194.301 23.4235 193.277 24.1063 193.277 25.472C193.277 26.036 193.485 26.511 193.9 26.897C194.345 27.2532 194.939 27.4314 195.681 27.4314Z" fill="#F6F7F8" fill-opacity="0.972549"/>
<path d="M184.577 1.87036L174.602 33.0424H163.335L158.303 16.3876L153.004 33.0424H141.737L131.762 1.87036H142.584L148.016 19.5939L153.761 1.87036H163.424L168.857 19.8166L174.602 1.87036H184.577Z" fill="#F6F7F8" fill-opacity="0.972549"/>
<path d="M119.198 8.23833C122.196 8.23833 124.601 9.1438 126.412 10.9548C128.253 12.7657 129.173 15.497 129.173 19.1485V33.0424H119.109V20.8853C119.109 18.0946 118.114 16.6993 116.125 16.6993C114.997 16.6993 114.077 17.1001 113.364 17.9017C112.681 18.6735 112.34 19.9056 112.34 21.5978V33.0424H102.276V0H112.34V10.643C114.21 9.0399 116.496 8.23833 119.198 8.23833Z" fill="#F6F7F8" fill-opacity="0.972549"/>
<path d="M86.6263 33.4876C84.5481 33.4876 82.4997 33.265 80.4809 32.8197C78.4622 32.3744 76.8293 31.7954 75.5825 31.0829L78.3434 24.4477C79.4715 25.1306 80.8075 25.6649 82.3513 26.0509C83.895 26.4368 85.3942 26.6298 86.8489 26.6298C88.0068 26.6298 88.8083 26.5407 89.2536 26.3626C89.7286 26.1548 89.9661 25.8579 89.9661 25.472C89.9661 25.086 89.6693 24.8188 89.0755 24.6704C88.5114 24.522 87.5763 24.3735 86.27 24.2251C84.2809 23.9876 82.5887 23.6907 81.1934 23.3345C79.7981 22.9485 78.5661 22.2212 77.4973 21.1524C76.4582 20.0837 75.9387 18.5547 75.9387 16.5657C75.9387 14.9922 76.4137 13.5821 77.3637 12.3352C78.3137 11.0883 79.7239 10.0938 81.5942 9.35157C83.4942 8.60938 85.7653 8.23828 88.4075 8.23828C90.2482 8.23828 92.0443 8.41641 93.7958 8.77266C95.5771 9.09922 97.0912 9.58907 98.3381 10.2422L95.5771 16.8774C93.4396 15.6899 91.0943 15.0961 88.5411 15.0961C86.3442 15.0961 85.2458 15.4821 85.2458 16.254C85.2458 16.6399 85.5427 16.9219 86.1364 17.1C86.7302 17.2485 87.6653 17.3969 88.9419 17.5454C90.931 17.7829 92.6083 18.0946 93.974 18.4805C95.3693 18.8665 96.5865 19.5938 97.6255 20.6626C98.6943 21.7313 99.2287 23.2602 99.2287 25.2493C99.2287 26.7634 98.7537 28.1439 97.8037 29.3907C96.8537 30.6376 95.4287 31.6322 93.5287 32.3744C91.6286 33.1165 89.3279 33.4876 86.6263 33.4876Z" fill="#F6F7F8" fill-opacity="0.972549"/>
<path d="M73.9205 20.8407C73.9205 20.9891 73.876 21.7759 73.7869 23.2009H56.865C57.2212 24.1212 57.815 24.8337 58.6462 25.3384C59.4775 25.8134 60.5166 26.0509 61.7634 26.0509C62.8322 26.0509 63.7228 25.9173 64.4353 25.6501C65.1775 25.3829 65.9791 24.9227 66.84 24.2696L72.0947 29.5689C69.7197 32.1814 66.1721 33.4876 61.4517 33.4876C58.5126 33.4876 55.9298 32.9533 53.7032 31.8845C51.4767 30.7861 49.7548 29.272 48.5376 27.3423C47.3204 25.4126 46.7118 23.2454 46.7118 20.8407C46.7118 18.4063 47.3055 16.2391 48.4931 14.3391C49.7102 12.4094 51.3579 10.9102 53.4361 9.84142C55.5439 8.77266 57.904 8.23828 60.5166 8.23828C62.9806 8.23828 65.2221 8.72813 67.2408 9.70782C69.2893 10.6875 70.9072 12.1274 72.0947 14.0274C73.3119 15.9274 73.9205 18.1985 73.9205 20.8407ZM60.6056 15.0961C59.5666 15.0961 58.7056 15.3782 58.0228 15.9422C57.34 16.5063 56.8947 17.3079 56.6868 18.3469H64.5244C64.3166 17.3376 63.8713 16.5508 63.1884 15.9868C62.5056 15.393 61.6447 15.0961 60.6056 15.0961Z" fill="#F6F7F8" fill-opacity="0.972549"/>
<path d="M37.4861 11.311C39.2674 9.26251 41.8948 8.23828 45.3682 8.23828V17.1446C44.5666 17.0258 43.8245 16.9665 43.1416 16.9665C39.6979 16.9665 37.976 18.718 37.976 22.2212V33.0423H27.9119V8.6836H37.4861V11.311Z" fill="#F6F7F8" fill-opacity="0.972549"/>
<path d="M10.5094 9.79697V15.1407H23.5126V23.0674H10.5094V33.0424H0V1.87036H25.3384V9.79697H10.5094Z" fill="#F6F7F8" fill-opacity="0.972549"/>
</svg>
