<svg width="364" height="84" viewBox="0 0 364 84" fill="none" xmlns="http://www.w3.org/2000/svg">
<path d="M351.568 20.623H363.383V59.9688H351.568V20.623Z" fill="#F6F7F8" fill-opacity="0.972549"/>
<path d="M334.516 20.623H346.331V59.9688H334.516V20.623Z" fill="#F6F7F8" fill-opacity="0.972549"/>
<path d="M313.935 30.4326C318.953 30.4326 322.787 31.5815 325.436 33.8793C328.085 36.1418 329.409 39.6416 329.409 44.3786V59.9684H318.431V56.1505C317.071 59.0493 314.37 60.4987 310.327 60.4987C308.062 60.4987 306.127 60.1098 304.524 59.3321C302.956 58.519 301.753 57.4408 300.917 56.0975C300.115 54.7188 299.714 53.181 299.714 51.4842C299.714 48.6207 300.795 46.4466 302.956 44.9619C305.117 43.4772 308.393 42.7348 312.784 42.7348H317.542C317.158 40.4723 315.364 39.3411 312.157 39.3411C310.867 39.3411 309.56 39.5532 308.236 39.9774C306.912 40.3663 305.779 40.9142 304.838 41.6212L301.074 33.7203C302.712 32.6951 304.681 31.8997 306.981 31.3341C309.317 30.7331 311.634 30.4326 313.935 30.4326ZM313.882 53.2871C314.719 53.2871 315.468 53.0573 316.13 52.5977C316.793 52.1382 317.28 51.4488 317.594 50.5297V48.5147H314.666C312.262 48.5147 311.059 49.3278 311.059 50.9539C311.059 51.6256 311.303 52.1912 311.791 52.6507C312.314 53.075 313.011 53.2871 313.882 53.2871Z" fill="#F6F7F8" fill-opacity="0.972549"/>
<path d="M300.845 22.8501L289.135 59.9687H275.908L270 40.1368L263.779 59.9687H250.552L238.842 22.8501H251.546L257.924 43.9547L264.668 22.8501H276.013L282.391 44.2198L289.135 22.8501H300.845Z" fill="#F6F7F8" fill-opacity="0.972549"/>
<path d="M224.091 30.433C227.611 30.433 230.434 31.5112 232.56 33.6676C234.721 35.824 235.802 39.0763 235.802 43.4245V59.9688H223.986V45.4925C223.986 42.1695 222.819 40.508 220.484 40.508C219.159 40.508 218.079 40.9853 217.242 41.9397C216.441 42.8589 216.04 44.3259 216.04 46.3409V59.9688H204.225V20.623H216.04V33.2964C218.236 31.3874 220.919 30.433 224.091 30.433Z" fill="#F6F7F8" fill-opacity="0.972549"/>
<path d="M185.852 60.4987C183.412 60.4987 181.008 60.2335 178.637 59.7033C176.267 59.173 174.351 58.4837 172.887 57.6352L176.128 49.7343C177.452 50.5474 179.021 51.1837 180.833 51.6432C182.646 52.1028 184.406 52.3326 186.113 52.3326C187.473 52.3326 188.414 52.2265 188.937 52.0144C189.494 51.767 189.773 51.4135 189.773 50.9539C189.773 50.4943 189.425 50.1762 188.727 49.9994C188.065 49.8227 186.967 49.6459 185.434 49.4692C183.099 49.1863 181.112 48.8328 179.474 48.4086C177.836 47.9491 176.389 47.083 175.135 45.8103C173.915 44.5377 173.305 42.7171 173.305 40.3486C173.305 38.475 173.863 36.7958 174.978 35.3111C176.093 33.8263 177.749 32.6421 179.944 31.7583C182.175 30.8745 184.841 30.4326 187.943 30.4326C190.104 30.4326 192.213 30.6447 194.269 31.0689C196.36 31.4578 198.138 32.0411 199.602 32.8188L196.36 40.7198C193.851 39.3057 191.097 38.5987 188.1 38.5987C185.521 38.5987 184.231 39.0583 184.231 39.9774C184.231 40.437 184.58 40.7728 185.277 40.9849C185.974 41.1617 187.072 41.3384 188.571 41.5152C190.906 41.798 192.875 42.1692 194.478 42.6287C196.116 43.0883 197.545 43.9544 198.765 45.227C200.02 46.4997 200.647 48.3202 200.647 50.6888C200.647 52.4917 200.09 54.1355 198.974 55.6202C197.859 57.105 196.186 58.2892 193.955 59.173C191.725 60.0568 189.024 60.4987 185.852 60.4987Z" fill="#F6F7F8" fill-opacity="0.972549"/>
<path d="M170.936 45.4391C170.936 45.6159 170.883 46.5527 170.779 48.2495H150.913C151.331 49.3454 152.028 50.1939 153.004 50.7948C153.98 51.3604 155.199 51.6432 156.663 51.6432C157.918 51.6432 158.964 51.4842 159.8 51.166C160.671 50.8478 161.612 50.2999 162.623 49.5222L168.792 55.8323C166.004 58.9432 161.839 60.4987 156.297 60.4987C152.847 60.4987 149.815 59.8624 147.201 58.5897C144.587 57.2817 142.565 55.4788 141.136 53.181C139.707 50.8832 138.993 48.3026 138.993 45.4391C138.993 42.5404 139.69 39.9597 141.084 37.6973C142.513 35.3994 144.447 33.6142 146.887 32.3416C149.362 31.0689 152.132 30.4326 155.199 30.4326C158.092 30.4326 160.724 31.0159 163.094 32.1825C165.499 33.3491 167.398 35.0636 168.792 37.3261C170.221 39.5885 170.936 42.2929 170.936 45.4391ZM155.304 38.5987C154.084 38.5987 153.073 38.9345 152.272 39.6062C151.47 40.2779 150.947 41.2324 150.703 42.4697H159.905C159.661 41.2677 159.138 40.3309 158.336 39.6592C157.535 38.9522 156.524 38.5987 155.304 38.5987Z" fill="#F6F7F8" fill-opacity="0.972549"/>
<path d="M128.162 34.0915C130.253 31.6522 133.338 30.4326 137.415 30.4326V41.0379C136.474 40.8965 135.603 40.8258 134.801 40.8258C130.758 40.8258 128.737 42.9115 128.737 47.083V59.9684H116.922V30.9629H128.162V34.0915Z" fill="#F6F7F8" fill-opacity="0.972549"/>
<path d="M96.4913 32.2888V38.652H111.757V48.0907H96.4913V59.9687H84.1533V22.8501H113.9V32.2888H96.4913Z" fill="#F6F7F8" fill-opacity="0.972549"/>
<path d="M34.6095 0.495041C35.7799 -0.169827 37.2172 -0.164669 38.3827 0.508647L71.1162 19.4193C72.2823 20.0931 73 21.334 73 22.6763V60.18C72.9999 61.5125 72.2923 62.7458 71.1395 63.4229L38.4063 82.6492C37.229 83.3407 35.7683 83.3458 34.5859 82.6628L1.8838 63.7701C0.71768 63.0963 0 61.8554 0 60.5131V22.3431C8.49331e-06 20.9911 0.728224 19.7427 1.90781 19.0726L34.6095 0.495041ZM14.4399 28.2238C14.1484 28.3922 13.969 28.7024 13.969 29.038V70.7517L29.8239 79.9114V71.7295C29.824 71.3918 30.0059 71.08 30.3004 70.9124L57.886 55.226C58.1807 55.0584 58.3628 54.7464 58.3628 54.4085V37.2397C58.3628 36.6533 57.719 36.2918 57.2148 36.5951L31.2586 52.2146C30.6284 52.5939 29.8239 52.1421 29.8239 51.409V36.7977C29.824 36.463 30.0026 36.1533 30.2931 35.9847L64.9502 15.8572L50.3995 7.45095L14.4399 28.2238Z" fill="#F37A28"/>
</svg>
