<svg width="294" height="140" viewBox="0 0 294 140" fill="none" xmlns="http://www.w3.org/2000/svg">
<path d="M281.564 98.6055H294.004V139.45H281.564V98.6055Z" fill="#1B2E40"/>
<path d="M263.609 98.6055H276.049V139.45H263.609V98.6055Z" fill="#1B2E40"/>
<path d="M241.939 108.789C247.223 108.789 251.26 109.982 254.049 112.367C256.838 114.716 258.233 118.349 258.233 123.266V139.45H246.673V135.486C245.242 138.495 242.398 140 238.141 140C235.756 140 233.719 139.596 232.031 138.789C230.379 137.945 229.113 136.826 228.233 135.431C227.389 134 226.967 132.404 226.967 130.642C226.967 127.67 228.104 125.413 230.379 123.872C232.655 122.33 236.104 121.56 240.728 121.56H245.737C245.334 119.211 243.444 118.037 240.068 118.037C238.71 118.037 237.334 118.257 235.939 118.697C234.545 119.101 233.352 119.67 232.361 120.404L228.398 112.202C230.123 111.138 232.196 110.312 234.618 109.725C237.077 109.101 239.517 108.789 241.939 108.789ZM241.884 132.514C242.765 132.514 243.554 132.275 244.251 131.798C244.948 131.321 245.462 130.606 245.792 129.651V127.56H242.71C240.178 127.56 238.912 128.404 238.912 130.092C238.912 130.789 239.168 131.376 239.682 131.853C240.233 132.294 240.967 132.514 241.884 132.514Z" fill="#1B2E40"/>
<path d="M228.157 100.917L215.827 139.45H201.901L195.68 118.862L189.13 139.45H175.203L162.873 100.917H176.249L182.965 122.826L190.066 100.917H202.011L208.726 123.101L215.827 100.917H228.157Z" fill="#1B2E40"/>
<path d="M147.342 108.789C151.048 108.789 154.021 109.908 156.259 112.147C158.535 114.385 159.672 117.761 159.672 122.275V139.45H147.232V124.422C147.232 120.972 146.002 119.248 143.544 119.248C142.149 119.248 141.012 119.743 140.131 120.734C139.287 121.688 138.865 123.211 138.865 125.303V139.45H126.424V98.6055H138.865V111.761C141.177 109.78 144.002 108.789 147.342 108.789Z" fill="#1B2E40"/>
<path d="M107.08 140C104.511 140 101.979 139.725 99.4834 139.174C96.988 138.624 94.9696 137.908 93.4283 137.028L96.8412 128.826C98.2357 129.67 99.8871 130.33 101.795 130.807C103.704 131.284 105.557 131.523 107.355 131.523C108.786 131.523 109.777 131.413 110.327 131.193C110.915 130.936 111.208 130.569 111.208 130.092C111.208 129.615 110.841 129.284 110.107 129.101C109.41 128.918 108.254 128.734 106.639 128.551C104.181 128.257 102.089 127.89 100.364 127.45C98.6394 126.973 97.1164 126.073 95.7953 124.752C94.5109 123.431 93.8687 121.541 93.8687 119.083C93.8687 117.138 94.4559 115.395 95.6302 113.853C96.8045 112.312 98.5476 111.083 100.86 110.165C103.208 109.248 106.016 108.789 109.282 108.789C111.557 108.789 113.777 109.009 115.942 109.45C118.144 109.853 120.016 110.459 121.557 111.266L118.144 119.468C115.502 118 112.603 117.266 109.447 117.266C106.731 117.266 105.373 117.743 105.373 118.697C105.373 119.174 105.74 119.523 106.474 119.743C107.208 119.927 108.364 120.11 109.942 120.294C112.401 120.587 114.474 120.973 116.162 121.45C117.887 121.927 119.392 122.826 120.676 124.147C121.997 125.468 122.658 127.358 122.658 129.817C122.658 131.688 122.071 133.395 120.896 134.936C119.722 136.477 117.96 137.706 115.612 138.624C113.263 139.541 110.419 140 107.08 140Z" fill="#1B2E40"/>
<path d="M91.374 124.367C91.374 124.551 91.319 125.523 91.2089 127.284H70.2914C70.7318 128.422 71.4657 129.303 72.4933 129.927C73.5208 130.514 74.8052 130.807 76.3465 130.807C77.6676 130.807 78.7685 130.642 79.6492 130.312C80.5667 129.982 81.5575 129.413 82.6217 128.606L89.1171 135.156C86.1813 138.385 81.796 140 75.9612 140C72.3281 140 69.1355 139.34 66.3832 138.018C63.6309 136.661 61.5024 134.789 59.9979 132.404C58.4933 130.018 57.741 127.34 57.741 124.367C57.741 121.358 58.4749 118.679 59.9428 116.33C61.4474 113.945 63.4841 112.092 66.0529 110.771C68.6584 109.45 71.5758 108.789 74.8052 108.789C77.8511 108.789 80.6217 109.395 83.1171 110.606C85.6492 111.817 87.6492 113.596 89.1171 115.945C90.6217 118.294 91.374 121.101 91.374 124.367ZM74.9153 117.266C73.6309 117.266 72.5667 117.615 71.7226 118.312C70.8786 119.009 70.3281 120 70.0712 121.284H79.7593C79.5024 120.037 78.952 119.064 78.1079 118.367C77.2639 117.633 76.1997 117.266 74.9153 117.266Z" fill="#1B2E40"/>
<path d="M46.337 112.587C48.5389 110.055 51.7866 108.789 56.0802 108.789V119.798C55.0893 119.651 54.1719 119.578 53.3279 119.578C49.071 119.578 46.9425 121.743 46.9425 126.073V139.45H34.5022V109.34H46.337V112.587Z" fill="#1B2E40"/>
<path d="M12.9908 110.716V117.321H29.0642V127.119H12.9908V139.45H0V100.917H31.3211V110.716H12.9908Z" fill="#1B2E40"/>
<path d="M145.606 0.517829C146.84 -0.177645 148.356 -0.172249 149.586 0.532061L184.113 20.3133C185.343 21.018 186.1 22.3161 186.1 23.7201V62.9502C186.1 64.3441 185.353 65.6341 184.137 66.3424L149.611 86.4537C148.369 87.177 146.828 87.1824 145.581 86.4679L111.087 66.7056C109.857 66.0008 109.1 64.7027 109.1 63.2987V23.3716C109.1 21.9573 109.868 20.6515 111.112 19.9505L145.606 0.517829ZM124.331 29.523C124.023 29.6992 123.834 30.0237 123.834 30.3746V74.0086L140.558 83.5899V75.0314C140.558 74.6781 140.75 74.352 141.061 74.1767L170.158 57.7681C170.468 57.5928 170.661 57.2665 170.661 56.9131V38.954C170.661 38.3405 169.981 37.9624 169.45 38.2797L142.071 54.6182C141.406 55.0149 140.558 54.5423 140.558 53.7754V38.4916C140.558 38.1415 140.746 37.8176 141.053 37.6411L177.609 16.5871L162.261 7.79394L124.331 29.523Z" fill="#F37A28"/>
</svg>
