<svg width="364" height="82" viewBox="0 0 364 82" fill="none" xmlns="http://www.w3.org/2000/svg">
<path d="M351.568 20.332H363.383V59.1236H351.568V20.332Z" fill="#1B2E40"/>
<path d="M334.516 20.332H346.331V59.1236H334.516V20.332Z" fill="#1B2E40"/>
<path d="M313.935 30.0039C318.953 30.0039 322.787 31.1366 325.436 33.4021C328.085 35.6327 329.409 39.0832 329.409 43.7535V59.1237H318.431V55.3596C317.071 58.2175 314.37 59.6465 310.327 59.6465C308.062 59.6465 306.127 59.2631 304.524 58.4964C302.956 57.6947 301.753 56.6317 300.917 55.3073C300.115 53.948 299.714 52.4319 299.714 50.759C299.714 47.9359 300.795 45.7924 302.956 44.3285C305.117 42.8647 308.393 42.1328 312.784 42.1328H317.542C317.158 39.9022 315.364 38.7869 312.157 38.7869C310.867 38.7869 309.56 38.996 308.236 39.4143C306.912 39.7976 305.779 40.3379 304.838 41.0349L301.074 33.2452C302.712 32.2345 304.681 31.4503 306.981 30.8927C309.317 30.3002 311.634 30.0039 313.935 30.0039ZM313.882 52.5365C314.719 52.5365 315.468 52.3099 316.13 51.8568C316.793 51.4037 317.28 50.7241 317.594 49.8179V47.8313H314.666C312.262 47.8313 311.059 48.6329 311.059 50.2362C311.059 50.8984 311.303 51.456 311.791 51.9091C312.314 52.3273 313.011 52.5365 313.882 52.5365Z" fill="#1B2E40"/>
<path d="M300.845 22.5278L289.135 59.1236H275.908L270 39.571L263.779 59.1236H250.552L238.842 22.5278H251.546L257.924 43.3352L264.668 22.5278H276.013L282.391 43.5966L289.135 22.5278H300.845Z" fill="#1B2E40"/>
<path d="M224.091 30.0038C227.611 30.0038 230.434 31.0668 232.56 33.1928C234.721 35.3189 235.802 38.5254 235.802 42.8123V59.1236H223.986V44.8512C223.986 41.575 222.819 39.9369 220.484 39.9369C219.159 39.9369 218.079 40.4074 217.242 41.3485C216.441 42.2547 216.04 43.7011 216.04 45.6877V59.1236H204.225V20.332H216.04V32.8269C218.236 30.9448 220.919 30.0038 224.091 30.0038Z" fill="#1B2E40"/>
<path d="M185.852 59.6465C183.412 59.6465 181.008 59.3851 178.637 58.8623C176.267 58.3395 174.351 57.6599 172.887 56.8234L176.128 49.0337C177.452 49.8353 179.021 50.4627 180.833 50.9158C182.646 51.3689 184.406 51.5954 186.113 51.5954C187.473 51.5954 188.414 51.4909 188.937 51.2818C189.494 51.0378 189.773 50.6892 189.773 50.2362C189.773 49.7831 189.425 49.4694 188.727 49.2951C188.065 49.1209 186.967 48.9466 185.434 48.7723C183.099 48.4935 181.112 48.145 179.474 47.7267C177.836 47.2736 176.389 46.4197 175.135 45.165C173.915 43.9103 173.305 42.1154 173.305 39.7802C173.305 37.933 173.863 36.2775 174.978 34.8136C176.093 33.3498 177.749 32.1822 179.944 31.3109C182.175 30.4396 184.841 30.0039 187.943 30.0039C190.104 30.0039 192.213 30.213 194.269 30.6313C196.36 31.0146 198.138 31.5897 199.602 32.3565L196.36 40.1462C193.851 38.752 191.097 38.055 188.1 38.055C185.521 38.055 184.231 38.5081 184.231 39.4143C184.231 39.8673 184.58 40.1985 185.277 40.4076C185.974 40.5818 187.072 40.7561 188.571 40.9304C190.906 41.2092 192.875 41.5752 194.478 42.0282C196.116 42.4813 197.545 43.3352 198.765 44.5899C200.02 45.8447 200.647 47.6396 200.647 49.9748C200.647 51.7523 200.09 53.3729 198.974 54.8368C197.859 56.3006 196.186 57.4682 193.955 58.3395C191.725 59.2108 189.024 59.6465 185.852 59.6465Z" fill="#1B2E40"/>
<path d="M170.936 44.7991C170.936 44.9733 170.883 45.8969 170.779 47.5699H150.913C151.331 48.6503 152.028 49.4868 153.004 50.0793C153.98 50.637 155.199 50.9158 156.663 50.9158C157.918 50.9158 158.964 50.759 159.8 50.4453C160.671 50.1316 161.612 49.5914 162.623 48.8246L168.792 55.0459C166.004 58.113 161.839 59.6465 156.297 59.6465C152.847 59.6465 149.815 59.0192 147.201 57.7644C144.587 56.4749 142.565 54.6974 141.136 52.4319C139.707 50.1665 138.993 47.6222 138.993 44.7991C138.993 41.9411 139.69 39.3968 141.084 37.1662C142.513 34.9008 144.447 33.1407 146.887 31.886C149.362 30.6313 152.132 30.0039 155.199 30.0039C158.092 30.0039 160.724 30.579 163.094 31.7291C165.499 32.8793 167.398 34.5697 168.792 36.8003C170.221 39.0309 170.936 41.6971 170.936 44.7991ZM155.304 38.055C154.084 38.055 153.073 38.3861 152.272 39.0483C151.47 39.7105 150.947 40.6515 150.703 41.8714H159.905C159.661 40.6864 159.138 39.7628 158.336 39.1006C157.535 38.4035 156.524 38.055 155.304 38.055Z" fill="#1B2E40"/>
<path d="M128.162 33.6112C130.253 31.2063 133.338 30.0039 137.415 30.0039V40.4599C136.474 40.3204 135.603 40.2507 134.801 40.2507C130.758 40.2507 128.737 42.3071 128.737 46.4197V59.1237H116.922V30.5267H128.162V33.6112Z" fill="#1B2E40"/>
<path d="M96.4913 31.8336V38.1072H111.757V47.413H96.4913V59.1236H84.1533V22.5278H113.9V31.8336H96.4913Z" fill="#1B2E40"/>
<path d="M34.6095 0.488068C35.7799 -0.167435 37.2172 -0.16235 38.3827 0.501483L71.1162 19.1458C72.2823 19.8101 73 21.0335 73 22.3569V59.3324C72.9999 60.6461 72.2923 61.8621 71.1395 62.5297L38.4063 81.4851C37.229 82.1669 35.7683 82.1719 34.5859 81.4985L1.8838 62.8719C0.71768 62.2077 0 60.9842 0 59.6608V22.0284C8.49331e-06 20.6954 0.728224 19.4646 1.90781 18.8039L34.6095 0.488068ZM14.4399 27.8263C14.1484 27.9923 13.969 28.2982 13.969 28.629V69.7552L29.8239 78.7859V70.7192C29.824 70.3862 30.0059 70.0789 30.3004 69.9137L57.886 54.4481C58.1807 54.2829 58.3628 53.9753 58.3628 53.6422V36.7152C58.3628 36.1371 57.719 35.7806 57.2148 36.0797L31.2586 51.4792C30.6284 51.8531 29.8239 51.4077 29.8239 50.6849V36.2794C29.824 35.9494 30.0026 35.6441 30.2931 35.4778L64.9502 15.6338L50.3995 7.34601L14.4399 27.8263Z" fill="#F37A28"/>
</svg>
