<svg width="91" height="105" viewBox="0 0 91 105" fill="none" xmlns="http://www.w3.org/2000/svg">
<path d="M43.1434 0.62182C44.6023 -0.21332 46.3941 -0.206841 47.8469 0.63891L88.6517 24.3926C90.1054 25.2388 91 26.7976 91 28.4836V75.5919C90.9999 77.2657 90.1178 78.8149 88.6807 79.6654L47.8764 103.815C46.4087 104.684 44.5878 104.69 43.1139 103.832L2.3483 80.1014C0.894642 79.2552 0 77.6964 0 76.0104V28.0652C1.05876e-05 26.3668 0.907786 24.7987 2.37823 23.957L43.1434 0.62182ZM18.0004 35.4519C17.6371 35.6634 17.4134 36.053 17.4134 36.4745V88.8711L37.1778 100.377V90.0993C37.1779 89.675 37.4046 89.2834 37.7718 89.0729L72.1592 69.3692C72.5266 69.1587 72.7537 68.7668 72.7537 68.3424V46.7767C72.7536 46.0401 71.951 45.586 71.3226 45.967L38.9662 65.5867C38.1806 66.063 37.1778 65.4955 37.1778 64.5747V46.2215C37.1779 45.8011 37.4005 45.4121 37.7626 45.2003L80.9654 19.9182L62.8268 9.35912L18.0004 35.4519Z" fill="#F37A28"/>
</svg>
