<svg width="171" height="39" viewBox="0 0 171 39" fill="none" xmlns="http://www.w3.org/2000/svg">
<path d="M165.44 9.56787H171V27.8223H165.44V9.56787Z" fill="#F6F7F8" fill-opacity="0.972549"/>
<path d="M157.416 9.56787H162.976V27.8223H157.416V9.56787Z" fill="#F6F7F8" fill-opacity="0.972549"/>
<path d="M147.731 14.1191C150.092 14.1191 151.897 14.6522 153.143 15.7183C154.39 16.7679 155.013 18.3916 155.013 20.5894V27.8223H149.846V26.051C149.207 27.3958 147.936 28.0683 146.033 28.0683C144.967 28.0683 144.057 27.8879 143.302 27.5271C142.564 27.1498 141.998 26.6496 141.605 26.0264C141.228 25.3867 141.039 24.6733 141.039 23.886C141.039 22.5575 141.547 21.5488 142.564 20.86C143.581 20.1712 145.123 19.8267 147.189 19.8267H149.428C149.248 18.7771 148.403 18.2522 146.894 18.2522C146.287 18.2522 145.672 18.3506 145.049 18.5474C144.426 18.7279 143.893 18.9821 143.45 19.3101L141.679 15.6444C142.449 15.1688 143.376 14.7998 144.459 14.5374C145.558 14.2586 146.648 14.1191 147.731 14.1191ZM147.706 24.7225C148.1 24.7225 148.452 24.6159 148.764 24.4026C149.076 24.1894 149.305 23.8696 149.453 23.4432V22.5083H148.075C146.943 22.5083 146.378 22.8855 146.378 23.64C146.378 23.9516 146.492 24.214 146.722 24.4272C146.968 24.6241 147.296 24.7225 147.706 24.7225Z" fill="#F6F7F8" fill-opacity="0.972549"/>
<path d="M141.571 10.6011L136.06 27.8223H129.836L127.056 18.6212L124.129 27.8223H117.904L112.394 10.6011H118.372L121.373 20.3925L124.547 10.6011H129.885L132.887 20.5156L136.06 10.6011H141.571Z" fill="#F6F7F8" fill-opacity="0.972549"/>
<path d="M105.452 14.1192C107.109 14.1192 108.437 14.6194 109.438 15.6199C110.455 16.6204 110.963 18.1293 110.963 20.1466V27.8223H105.403V21.1061C105.403 19.5644 104.854 18.7935 103.755 18.7935C103.132 18.7935 102.623 19.0149 102.229 19.4577C101.852 19.8842 101.664 20.5648 101.664 21.4997V27.8223H96.1037V9.56787H101.664V15.4477C102.697 14.562 103.96 14.1192 105.452 14.1192Z" fill="#F6F7F8" fill-opacity="0.972549"/>
<path d="M87.4579 28.0683C86.3098 28.0683 85.1782 27.9453 84.0629 27.6993C82.9476 27.4533 82.0455 27.1334 81.3567 26.7398L82.882 23.0742C83.5052 23.4514 84.2433 23.7466 85.0961 23.9598C85.949 24.173 86.7773 24.2796 87.5809 24.2796C88.2206 24.2796 88.6634 24.2304 88.9094 24.132C89.1718 24.0172 89.303 23.8532 89.303 23.64C89.303 23.4268 89.139 23.2792 88.811 23.1972C88.4994 23.1152 87.9827 23.0331 87.2611 22.9511C86.1622 22.8199 85.2274 22.6559 84.4565 22.4591C83.6856 22.2459 83.005 21.8441 82.4146 21.2536C81.8405 20.6632 81.5535 19.8185 81.5535 18.7197C81.5535 17.8504 81.8159 17.0713 82.3408 16.3825C82.8656 15.6936 83.6446 15.1442 84.6779 14.7342C85.7276 14.3242 86.9823 14.1191 88.442 14.1191C89.4588 14.1191 90.4511 14.2175 91.4188 14.4144C92.4028 14.5948 93.2393 14.8654 93.9281 15.2262L92.4028 18.8919C91.222 18.2358 89.9263 17.9078 88.5158 17.9078C87.3021 17.9078 86.6953 18.121 86.6953 18.5474C86.6953 18.7607 86.8593 18.9165 87.1873 19.0149C87.5153 19.0969 88.0319 19.1789 88.7372 19.2609C89.8361 19.3921 90.7627 19.5643 91.5172 19.7775C92.288 19.9907 92.9605 20.3926 93.5345 20.983C94.125 21.5735 94.4202 22.4181 94.4202 23.517C94.4202 24.3534 94.1578 25.1161 93.6329 25.8049C93.1081 26.4938 92.3208 27.0432 91.2712 27.4533C90.2215 27.8633 88.9504 28.0683 87.4579 28.0683Z" fill="#F6F7F8" fill-opacity="0.972549"/>
<path d="M80.4386 21.0814C80.4386 21.1634 80.4139 21.5981 80.3647 22.3853H71.0161C71.2129 22.8937 71.5409 23.2874 72.0002 23.5662C72.4594 23.8286 73.0334 23.9598 73.7223 23.9598C74.3127 23.9598 74.8048 23.886 75.1984 23.7384C75.6084 23.5908 76.0512 23.3366 76.5269 22.9757L79.4299 25.9033C78.1178 27.3466 76.1579 28.0683 73.5501 28.0683C71.9264 28.0683 70.4995 27.7731 69.2694 27.1826C68.0393 26.5758 67.088 25.7393 66.4156 24.6733C65.7431 23.6072 65.4069 22.4099 65.4069 21.0814C65.4069 19.7365 65.7349 18.5392 66.391 17.4896C67.0634 16.4235 67.9737 15.5952 69.1218 15.0048C70.2863 14.4144 71.5901 14.1191 73.0334 14.1191C74.3947 14.1191 75.633 14.3898 76.7483 14.931C77.88 15.4722 78.7738 16.2677 79.4299 17.3174C80.1023 18.367 80.4386 19.6217 80.4386 21.0814ZM73.0826 17.9078C72.5086 17.9078 72.033 18.0636 71.6557 18.3752C71.2785 18.6869 71.0325 19.1297 70.9177 19.7037H75.2476C75.1328 19.1461 74.8868 18.7115 74.5095 18.3998C74.1323 18.0718 73.6567 17.9078 73.0826 17.9078Z" fill="#F6F7F8" fill-opacity="0.972549"/>
<path d="M60.3101 15.8167C61.2942 14.685 62.7457 14.1191 64.6646 14.1191V19.0395C64.2218 18.9739 63.8118 18.9411 63.4346 18.9411C61.532 18.9411 60.5808 19.9087 60.5808 21.8441V27.8223H55.0208V14.3652H60.3101V15.8167Z" fill="#F6F7F8" fill-opacity="0.972549"/>
<path d="M45.4067 14.9802V17.9324H52.5904V22.3115H45.4067V27.8223H39.6007V10.6011H53.5991V14.9802H45.4067Z" fill="#F6F7F8" fill-opacity="0.972549"/>
<path d="M16.2865 0.229674C16.8372 -0.0787914 17.5136 -0.0763984 18.062 0.235987L33.4657 9.0096C34.0145 9.32218 34.3522 9.89792 34.3522 10.5207V27.9205C34.3522 28.5387 34.0192 29.1109 33.4767 29.4251L18.0732 38.3451C17.5191 38.6659 16.8318 38.6683 16.2754 38.3514L0.886477 29.5861C0.337724 29.2736 0 28.6978 0 28.0751V10.3661C3.99677e-06 9.7388 0.342686 9.15962 0.897775 8.84872L16.2865 0.229674ZM6.7951 13.0944C6.65793 13.1726 6.5735 13.3165 6.57349 13.4722V32.8253L14.0345 37.0749V33.2789C14.0345 33.1222 14.1201 32.9776 14.2587 32.8998L27.2399 25.6221C27.3785 25.5443 27.4643 25.3996 27.4643 25.2428V17.2774C27.4642 17.0053 27.1613 16.8376 26.924 16.9783L14.7096 24.225C14.413 24.4009 14.0345 24.1913 14.0345 23.8512V17.0723C14.0345 16.917 14.1186 16.7733 14.2552 16.6951L30.5642 7.35694L23.7169 3.45687L6.7951 13.0944Z" fill="#F6F7F8" fill-opacity="0.972549"/>
</svg>
