<svg width="294" height="142" viewBox="0 0 294 142" fill="none" xmlns="http://www.w3.org/2000/svg">
<path d="M281.564 100.014H294.004V141.441H281.564V100.014Z" fill="#F6F7F8" fill-opacity="0.972549"/>
<path d="M263.609 100.014H276.049V141.441H263.609V100.014Z" fill="#F6F7F8" fill-opacity="0.972549"/>
<path d="M241.939 110.343C247.223 110.343 251.26 111.552 254.049 113.972C256.838 116.354 258.233 120.039 258.233 125.027V141.441H246.673V137.421C245.242 140.474 242.398 142 238.141 142C235.756 142 233.719 141.59 232.031 140.771C230.379 139.915 229.113 138.78 228.233 137.366C227.389 135.914 226.967 134.295 226.967 132.508C226.967 129.493 228.104 127.204 230.379 125.641C232.655 124.078 236.104 123.296 240.728 123.296H245.737C245.334 120.914 243.444 119.723 240.068 119.723C238.71 119.723 237.334 119.946 235.939 120.393C234.545 120.802 233.352 121.379 232.361 122.123L228.398 113.804C230.123 112.725 232.196 111.887 234.618 111.292C237.077 110.659 239.517 110.343 241.939 110.343ZM241.884 134.406C242.765 134.406 243.554 134.165 244.251 133.681C244.948 133.197 245.462 132.471 245.792 131.503V129.382H242.71C240.178 129.382 238.912 130.238 238.912 131.95C238.912 132.657 239.168 133.253 239.682 133.736C240.233 134.183 240.967 134.406 241.884 134.406Z" fill="#F6F7F8" fill-opacity="0.972549"/>
<path d="M228.157 102.359L215.827 141.441H201.901L195.68 120.56L189.13 141.441H175.203L162.873 102.359H176.249L182.965 124.58L190.066 102.359H202.011L208.726 124.859L215.827 102.359H228.157Z" fill="#F6F7F8" fill-opacity="0.972549"/>
<path d="M147.342 110.343C151.048 110.343 154.021 111.478 156.259 113.748C158.535 116.019 159.672 119.443 159.672 124.022V141.441H147.232V126.199C147.232 122.7 146.002 120.951 143.544 120.951C142.149 120.951 141.012 121.453 140.131 122.458C139.287 123.426 138.865 124.971 138.865 127.092V141.441H126.424V100.014H138.865V113.358C141.177 111.348 144.002 110.343 147.342 110.343Z" fill="#F6F7F8" fill-opacity="0.972549"/>
<path d="M107.08 142C104.511 142 101.979 141.72 99.4834 141.162C96.988 140.604 94.9696 139.878 93.4283 138.985L96.8412 130.666C98.2357 131.522 99.8871 132.192 101.795 132.676C103.704 133.16 105.557 133.401 107.355 133.401C108.786 133.401 109.777 133.29 110.327 133.067C110.915 132.806 111.208 132.434 111.208 131.95C111.208 131.466 110.841 131.131 110.107 130.945C109.41 130.759 108.254 130.573 106.639 130.387C104.181 130.089 102.089 129.717 100.364 129.27C98.6394 128.786 97.1164 127.874 95.7953 126.534C94.5109 125.194 93.8687 123.277 93.8687 120.783C93.8687 118.811 94.4559 117.043 95.6302 115.479C96.8045 113.916 98.5476 112.669 100.86 111.739C103.208 110.808 106.016 110.343 109.282 110.343C111.557 110.343 113.777 110.566 115.942 111.013C118.144 111.422 120.016 112.036 121.557 112.855L118.144 121.174C115.502 119.685 112.603 118.941 109.447 118.941C106.731 118.941 105.373 119.425 105.373 120.393C105.373 120.876 105.74 121.23 106.474 121.453C107.208 121.639 108.364 121.826 109.942 122.012C112.401 122.309 114.474 122.7 116.162 123.184C117.887 123.668 119.392 124.58 120.676 125.92C121.997 127.26 122.658 129.177 122.658 131.671C122.658 133.569 122.071 135.3 120.896 136.863C119.722 138.426 117.96 139.673 115.612 140.604C113.263 141.534 110.419 142 107.08 142Z" fill="#F6F7F8" fill-opacity="0.972549"/>
<path d="M91.374 126.143C91.374 126.329 91.319 127.316 91.2089 129.102H70.2914C70.7318 130.256 71.4657 131.15 72.4933 131.782C73.5208 132.378 74.8052 132.676 76.3465 132.676C77.6676 132.676 78.7685 132.508 79.6492 132.173C80.5667 131.838 81.5575 131.261 82.6217 130.442L89.1171 137.086C86.1813 140.362 81.796 142 75.9612 142C72.3281 142 69.1355 141.33 66.3832 139.99C63.6309 138.613 61.5024 136.714 59.9979 134.295C58.4933 131.875 57.741 129.158 57.741 126.143C57.741 123.091 58.4749 120.374 59.9428 117.992C61.4474 115.572 63.4841 113.693 66.0529 112.353C68.6584 111.013 71.5758 110.343 74.8052 110.343C77.8511 110.343 80.6217 110.957 83.1171 112.185C85.6492 113.414 87.6492 115.219 89.1171 117.601C90.6217 119.983 91.374 122.831 91.374 126.143ZM74.9153 118.941C73.6309 118.941 72.5667 119.295 71.7226 120.002C70.8786 120.709 70.3281 121.714 70.0712 123.017H79.7593C79.5024 121.751 78.952 120.765 78.1079 120.058C77.2639 119.313 76.1997 118.941 74.9153 118.941Z" fill="#F6F7F8" fill-opacity="0.972549"/>
<path d="M46.337 114.195C48.5389 111.627 51.7866 110.343 56.0802 110.343V121.509C55.0893 121.36 54.1719 121.286 53.3279 121.286C49.071 121.286 46.9425 123.482 46.9425 127.874V141.441H34.5022V110.901H46.337V114.195Z" fill="#F6F7F8" fill-opacity="0.972549"/>
<path d="M12.9908 112.297V118.997H29.0642V128.935H12.9908V141.441H0V102.359H31.3211V112.297H12.9908Z" fill="#F6F7F8" fill-opacity="0.972549"/>
<path d="M145.606 0.525226C146.84 -0.180183 148.356 -0.17471 149.586 0.539662L184.113 20.6034C185.343 21.3183 186.1 22.6349 186.1 24.059V63.8495C186.1 65.2633 185.353 66.5718 184.137 67.2902L149.611 87.6887C148.369 88.4224 146.828 88.4278 145.581 87.7032L111.087 67.6585C109.857 66.9437 109.1 65.6271 109.1 64.203V23.7055C109.1 22.271 109.868 20.9465 111.112 20.2355L145.606 0.525226ZM124.331 29.9448C124.023 30.1235 123.834 30.4526 123.834 30.8086V75.0659L140.558 84.7841V76.1033C140.558 75.7449 140.75 75.4141 141.061 75.2364L170.158 58.5934C170.468 58.4156 170.661 58.0846 170.661 57.7261V39.5104C170.661 38.8883 169.981 38.5047 169.45 38.8265L142.071 55.3985C141.406 55.8008 140.558 55.3215 140.558 54.5437V39.0415C140.558 38.6864 140.746 38.3578 141.053 38.1789L177.609 16.8241L162.261 7.90528L124.331 29.9448Z" fill="#F37A28"/>
</svg>
