<svg width="91" height="103" viewBox="0 0 91 103" fill="none" xmlns="http://www.w3.org/2000/svg">
<path d="M43.1434 0.613061C44.6023 -0.210315 46.3941 -0.203928 47.8469 0.629911L88.6517 24.049C90.1054 24.8834 91 26.4202 91 28.0825V74.5272C90.9999 76.1775 90.1178 77.7048 88.6807 78.5434L47.8764 102.353C46.4087 103.21 44.5878 103.216 43.1139 102.37L2.3483 78.9732C0.894642 78.1389 0 76.6021 0 74.9398V27.6699C1.05876e-05 25.9955 0.907786 24.4495 2.37823 23.6196L43.1434 0.613061ZM18.0004 34.9525C17.6371 35.1611 17.4134 35.5453 17.4134 35.9608V87.6194L37.1778 98.9628V88.8303C37.1779 88.412 37.4046 88.0259 37.7718 87.8184L72.1592 68.3922C72.5266 68.1846 72.7537 67.7982 72.7537 67.3798V46.1179C72.7536 45.3917 71.951 44.9439 71.3226 45.3196L38.9662 64.6629C38.1806 65.1325 37.1778 64.573 37.1778 63.6652V45.5705C37.1779 45.156 37.4005 44.7725 37.7626 44.5636L80.9654 19.6376L62.8268 9.2273L18.0004 34.9525Z" fill="#F37A28"/>
</svg>
