<svg width="272" height="123" viewBox="0 0 272 123" fill="none" xmlns="http://www.w3.org/2000/svg">
<path d="M134.252 0.452324C135.334 -0.155173 136.663 -0.15046 137.741 0.464756L168.012 17.7437C169.09 18.3592 169.754 19.4931 169.754 20.7196V54.987C169.754 56.2046 169.099 57.3315 168.033 57.9502L137.763 75.5174C136.674 76.1492 135.323 76.1539 134.23 75.5298L103.988 58.2674C102.91 57.6518 102.246 56.5179 102.246 55.2915V20.4151C102.246 19.1797 102.92 18.0391 104.011 17.4268L134.252 0.452324ZM115.6 25.7884C115.33 25.9423 115.164 26.2257 115.164 26.5323V64.6466L129.826 73.0159V65.54C129.826 65.2314 129.994 64.9465 130.267 64.7934L155.777 50.4605C156.049 50.3074 156.218 50.0223 156.218 49.7136V34.0263C156.218 33.4905 155.622 33.1602 155.156 33.4373L131.153 47.7091C130.57 48.0555 129.826 47.6427 129.826 46.9729V33.6225C129.826 33.3166 129.992 33.0337 130.26 32.8796L162.31 14.4889L148.854 6.80801L115.6 25.7884Z" fill="#F37A28"/>
<path d="M261.102 86.6772H272V122.517H261.102V86.6772Z" fill="#F6F7F8" fill-opacity="0.972549"/>
<path d="M245.375 86.6772H256.272V122.517H245.375V86.6772Z" fill="#F6F7F8" fill-opacity="0.972549"/>
<path d="M226.392 95.613C231.021 95.613 234.557 96.6595 237 98.7526C239.443 100.813 240.665 104.001 240.665 108.316V122.517H230.539V119.039C229.285 121.68 226.794 123 223.065 123C220.975 123 219.191 122.646 217.712 121.937C216.266 121.197 215.157 120.215 214.385 118.991C213.646 117.735 213.276 116.334 213.276 114.789C213.276 112.18 214.273 110.2 216.266 108.848C218.259 107.495 221.281 106.819 225.331 106.819H229.719C229.365 104.758 227.71 103.728 224.752 103.728C223.563 103.728 222.358 103.921 221.136 104.307C219.914 104.661 218.87 105.161 218.002 105.805L214.53 98.6077C216.041 97.6738 217.857 96.9493 219.979 96.4341C222.133 95.8867 224.27 95.613 226.392 95.613ZM226.344 116.431C227.115 116.431 227.806 116.222 228.417 115.803C229.028 115.384 229.478 114.757 229.767 113.919V112.084H227.067C224.849 112.084 223.74 112.824 223.74 114.306C223.74 114.918 223.965 115.433 224.415 115.851C224.897 116.238 225.54 116.431 226.344 116.431Z" fill="#F6F7F8" fill-opacity="0.972549"/>
<path d="M214.319 88.7058L203.518 122.517H191.319L185.87 104.452L180.132 122.517H167.932L157.131 88.7058H168.848L174.731 107.93L180.951 88.7058H191.415L197.298 108.171L203.518 88.7058H214.319Z" fill="#F6F7F8" fill-opacity="0.972549"/>
<path d="M129.07 95.613C132.316 95.613 134.92 96.5951 136.881 98.5594C138.874 100.524 139.871 103.486 139.871 107.447V122.517H128.973V109.331C128.973 106.304 127.896 104.79 125.742 104.79C124.521 104.79 123.524 105.225 122.753 106.094C122.013 106.932 121.644 108.268 121.644 110.103V122.517H110.746V86.6772H121.644V98.2213C123.669 96.4824 126.144 95.613 129.07 95.613Z" fill="#F6F7F8" fill-opacity="0.972549"/>
<path d="M93.8004 123C91.5502 123 89.3321 122.758 87.1461 122.275C84.9602 121.792 83.1921 121.165 81.842 120.392L84.8316 113.195C86.0532 113.935 87.4998 114.515 89.1714 114.934C90.843 115.352 92.4664 115.562 94.0415 115.562C95.2952 115.562 96.1632 115.465 96.6454 115.272C97.1597 115.046 97.4169 114.724 97.4169 114.306C97.4169 113.887 97.0954 113.597 96.4525 113.436C95.8417 113.275 94.8291 113.114 93.4147 112.953C91.2609 112.696 89.4285 112.374 87.9176 111.987C86.4068 111.569 85.0727 110.78 83.9154 109.62C82.7903 108.461 82.2278 106.803 82.2278 104.645C82.2278 102.939 82.7421 101.409 83.7708 100.057C84.7995 98.7043 86.3264 97.6255 88.3516 96.8205C90.409 96.0155 92.8682 95.613 95.7292 95.613C97.7223 95.613 99.6671 95.8062 101.564 96.1926C103.493 96.5468 105.132 97.0781 106.482 97.7866L103.493 104.983C101.178 103.695 98.6385 103.051 95.8739 103.051C93.495 103.051 92.3056 103.47 92.3056 104.307C92.3056 104.726 92.6271 105.032 93.27 105.225C93.9129 105.386 94.9256 105.547 96.3078 105.708C98.4616 105.966 100.278 106.304 101.757 106.722C103.268 107.141 104.586 107.93 105.711 109.089C106.868 110.248 107.447 111.907 107.447 114.064C107.447 115.706 106.932 117.204 105.904 118.556C104.875 119.909 103.332 120.987 101.274 121.792C99.2171 122.598 96.7257 123 93.8004 123Z" fill="#F6F7F8" fill-opacity="0.972549"/>
<path d="M80.0424 109.282C80.0424 109.443 79.9942 110.297 79.8978 111.842H61.5744C61.9601 112.841 62.6031 113.613 63.5032 114.161C64.4033 114.676 65.5284 114.934 66.8785 114.934C68.0358 114.934 69.0002 114.789 69.7717 114.499C70.5753 114.209 71.4433 113.71 72.3755 113.002L78.0654 118.749C75.4937 121.583 71.6523 123 66.541 123C63.3585 123 60.5618 122.42 58.1508 121.261C55.7398 120.07 53.8753 118.427 52.5573 116.334C51.2393 114.241 50.5803 111.891 50.5803 109.282C50.5803 106.642 51.2233 104.291 52.5091 102.23C53.8271 100.137 55.6112 98.5111 57.8615 97.3518C60.1439 96.1926 62.6995 95.613 65.5284 95.613C68.1965 95.613 70.6236 96.1443 72.8095 97.2069C75.0276 98.2696 76.7796 99.8313 78.0654 101.892C79.3834 103.953 80.0424 106.416 80.0424 109.282ZM65.6248 103.051C64.4997 103.051 63.5675 103.357 62.8281 103.969C62.0887 104.581 61.6065 105.45 61.3815 106.577H69.8681C69.6431 105.483 69.1609 104.629 68.4215 104.017C67.6822 103.373 66.7499 103.051 65.6248 103.051Z" fill="#F6F7F8" fill-opacity="0.972549"/>
<path d="M40.5906 98.9458C42.5194 96.7239 45.3644 95.613 49.1255 95.613V105.273C48.2575 105.144 47.4539 105.08 46.7145 105.08C42.9855 105.08 41.121 106.98 41.121 110.78V122.517H30.2234V96.096H40.5906V98.9458Z" fill="#F6F7F8" fill-opacity="0.972549"/>
<path d="M11.3798 97.3035V103.1H25.4599V111.697H11.3798V122.517H0V88.7058H27.4369V97.3035H11.3798Z" fill="#F6F7F8" fill-opacity="0.972549"/>
</svg>
