<svg width="238" height="114" viewBox="0 0 238 114" fill="none" xmlns="http://www.w3.org/2000/svg">
<path d="M227.782 79.7708H237.846V112.813H227.782V79.7708Z" fill="#1B2E40"/>
<path d="M213.257 79.7708H223.321V112.813H213.257V79.7708Z" fill="#1B2E40"/>
<path d="M195.726 88.009C200.001 88.009 203.267 88.9739 205.523 90.9036C207.779 92.8036 208.907 95.7427 208.907 99.7208V112.813H199.556V109.607C198.398 112.041 196.097 113.258 192.653 113.258C190.724 113.258 189.076 112.932 187.71 112.279C186.374 111.596 185.35 110.69 184.638 109.562C183.955 108.404 183.613 107.113 183.613 105.688C183.613 103.283 184.534 101.458 186.374 100.211C188.215 98.9638 191.006 98.3403 194.746 98.3403H198.799C198.472 96.4403 196.943 95.4903 194.212 95.4903C193.114 95.4903 192 95.6685 190.872 96.0247C189.744 96.3513 188.779 96.8114 187.978 97.4052L184.771 90.77C186.167 89.909 187.844 89.2411 189.803 88.7661C191.792 88.2614 193.767 88.009 195.726 88.009ZM195.681 107.202C196.394 107.202 197.032 107.009 197.596 106.623C198.16 106.237 198.576 105.658 198.843 104.886V103.194H196.349C194.301 103.194 193.277 103.877 193.277 105.243C193.277 105.807 193.485 106.282 193.9 106.668C194.346 107.024 194.939 107.202 195.681 107.202Z" fill="#1B2E40"/>
<path d="M184.577 81.6411L174.602 112.813H163.335L158.303 96.1584L153.004 112.813H141.738L131.762 81.6411H142.584L148.016 99.3647L153.761 81.6411H163.424L168.857 99.5873L174.602 81.6411H184.577Z" fill="#1B2E40"/>
<path d="M119.198 88.0091C122.196 88.0091 124.601 88.9146 126.412 90.7255C128.253 92.5365 129.173 95.2677 129.173 98.9193V112.813H119.109V100.656C119.109 97.8654 118.114 96.4701 116.125 96.4701C114.997 96.4701 114.077 96.8708 113.364 97.6724C112.681 98.4443 112.34 99.6763 112.34 101.369V112.813H102.276V79.7708H112.34V90.4138C114.21 88.8106 116.496 88.0091 119.198 88.0091Z" fill="#1B2E40"/>
<path d="M86.6263 113.258C84.5482 113.258 82.4997 113.036 80.481 112.59C78.4622 112.145 76.8294 111.566 75.5825 110.854L78.3435 104.219C79.4716 104.901 80.8076 105.436 82.3513 105.822C83.8951 106.208 85.3943 106.401 86.849 106.401C88.0068 106.401 88.8084 106.311 89.2537 106.133C89.7287 105.926 89.9662 105.629 89.9662 105.243C89.9662 104.857 89.6693 104.59 89.0756 104.441C88.5115 104.293 87.5763 104.144 86.2701 103.996C84.281 103.758 82.5888 103.461 81.1935 103.105C79.7982 102.719 78.5661 101.992 77.4974 100.923C76.4583 99.8544 75.9388 98.3255 75.9388 96.3364C75.9388 94.763 76.4138 93.3528 77.3638 92.1059C78.3138 90.859 79.7239 89.8645 81.5943 89.1223C83.4943 88.3801 85.7654 88.009 88.4076 88.009C90.2482 88.009 92.0443 88.1872 93.7959 88.5434C95.5772 88.87 97.0912 89.3598 98.3381 90.013L95.5772 96.6481C93.4396 95.4606 91.0943 94.8669 88.5412 94.8669C86.3443 94.8669 85.2459 95.2528 85.2459 96.0247C85.2459 96.4106 85.5427 96.6927 86.1365 96.8708C86.7302 97.0192 87.6654 97.1677 88.942 97.3161C90.931 97.5536 92.6084 97.8653 93.974 98.2513C95.3694 98.6372 96.5865 99.3646 97.6256 100.433C98.6944 101.502 99.2288 103.031 99.2288 105.02C99.2288 106.534 98.7537 107.915 97.8037 109.161C96.8537 110.408 95.4287 111.403 93.5287 112.145C91.6287 112.887 89.3279 113.258 86.6263 113.258Z" fill="#1B2E40"/>
<path d="M73.9205 100.611C73.9205 100.76 73.876 101.547 73.7869 102.972H56.865C57.2212 103.892 57.815 104.604 58.6462 105.109C59.4775 105.584 60.5166 105.822 61.7634 105.822C62.8322 105.822 63.7228 105.688 64.4353 105.421C65.1775 105.154 65.9791 104.694 66.84 104.04L72.0947 109.34C69.7197 111.952 66.1721 113.258 61.4517 113.258C58.5126 113.258 55.9298 112.724 53.7032 111.655C51.4767 110.557 49.7548 109.043 48.5376 107.113C47.3204 105.183 46.7118 103.016 46.7118 100.611C46.7118 98.1771 47.3055 96.0099 48.4931 94.1099C49.7102 92.1802 51.3579 90.6809 53.4361 89.6122C55.5439 88.5434 57.904 88.009 60.5166 88.009C62.9806 88.009 65.2221 88.4989 67.2408 89.4786C69.2893 90.4583 70.9072 91.8981 72.0947 93.7981C73.3119 95.6981 73.9205 97.9692 73.9205 100.611ZM60.6056 94.8669C59.5666 94.8669 58.7056 95.1489 58.0228 95.713C57.34 96.2771 56.8947 97.0786 56.6868 98.1177H64.5244C64.3166 97.1083 63.8713 96.3216 63.1884 95.7575C62.5056 95.1638 61.6447 94.8669 60.6056 94.8669Z" fill="#1B2E40"/>
<path d="M37.4861 91.0817C39.2674 89.0333 41.8948 88.009 45.3682 88.009V96.9153C44.5666 96.7966 43.8245 96.7372 43.1416 96.7372C39.6979 96.7372 37.976 98.4888 37.976 101.992V112.813H27.9119V88.4543H37.4861V91.0817Z" fill="#1B2E40"/>
<path d="M10.5094 89.5677V94.9115H23.5126V102.838H10.5094V112.813H0V81.6411H25.3384V89.5677H10.5094Z" fill="#1B2E40"/>
<path d="M117.878 0.416644C118.872 -0.142933 120.092 -0.138592 121.082 0.428095L148.883 16.344C149.874 16.911 150.483 17.9555 150.483 19.0852V50.6496C150.483 51.7711 149.882 52.8091 148.903 53.379L121.102 69.5604C120.102 70.1424 118.862 70.1467 117.857 69.5719L90.0831 53.6711C89.0927 53.1041 88.4832 52.0597 88.4832 50.93V18.8048C88.4832 17.6668 89.1016 16.6161 90.1035 16.0521L117.878 0.416644ZM100.747 23.7542C100.5 23.8959 100.347 24.157 100.347 24.4394V59.5471L113.813 67.2563V60.3701C113.813 60.0858 113.968 59.8234 114.218 59.6824L137.647 46.4801C137.897 46.3391 138.052 46.0765 138.052 45.7921V31.3423C138.052 30.8487 137.505 30.5444 137.077 30.7997L115.032 43.9457C114.496 44.2648 113.813 43.8846 113.813 43.2676V30.9703C113.813 30.6885 113.965 30.4279 114.211 30.286L143.646 13.346L131.288 6.27098L100.747 23.7542Z" fill="#F37A28"/>
</svg>
