<svg width="93" height="142" viewBox="0 0 93 142" fill="none" xmlns="http://www.w3.org/2000/svg">
<g filter="url(#filter0_d_222_22)">
<path d="M56.9157 109.807L57.351 110.229L57.6757 113.942L86.5384 113.088L87.1283 124.886L83.9173 125.017L83.4867 116.39L55.616 117.216L55.9838 125.055L52.772 125.178L52.2511 114.102L54.46 114.037L54.2536 111.671C51.4709 108.879 49.8809 106.275 49.0059 103.771L52.0402 102.736C52.7665 104.815 54.1613 107.143 56.9157 109.807Z" fill="#1B2E40"/>
<path d="M4.30303 15.5758H65.3939M4.30303 86.8485H58.2068" stroke="#1B2E40" stroke-width="3"/>
<path d="M30.2725 36.5909H39.7071C39.8756 36.5909 40.0336 36.6756 40.126 36.8165L41.7822 39.3448C42.2442 40.0496 43.0305 40.4746 43.8731 40.4747H45.667C48.7044 40.4749 51.167 42.9373 51.167 45.9747V56.9396C51.1669 59.9769 48.7044 62.4394 45.667 62.4396H24.0303C20.9928 62.4396 18.5304 59.9771 18.5303 56.9396V45.9747C18.5303 42.9372 20.9927 40.4747 24.0303 40.4747H26.1065C26.9492 40.4747 27.7353 40.0497 28.1973 39.3448L29.8545 36.8165C29.947 36.6758 30.1041 36.5909 30.2725 36.5909Z" stroke="#5EA99A" stroke-width="3"/>
<path d="M34.8488 44.2273C38.1623 44.2275 40.9845 47.0872 40.9846 50.7878C40.9846 54.4885 38.1623 57.3482 34.8488 57.3484C31.5352 57.3484 28.7121 54.4886 28.7121 50.7878C28.7121 47.0871 31.5352 44.2273 34.8488 44.2273Z" stroke="#5EA99A" stroke-width="3"/>
<path d="M63.714 106.523C58.9788 103.2 56.472 97.6616 59.5359 85.754C55.3833 83.2311 49.7869 76.6156 48.1157 73.0157C46.4444 69.4157 46.4444 66.3696 48.1157 62.2158C49.7869 58.062 63.714 77.7233 70.3991 80.7694M83.2121 114C83.2121 114 83.2121 76.3387 83.2121 69.9695C83.2121 63.6004 80.9837 62.2157 77.3627 58.3389C73.7416 54.4621 63.714 45.3236 63.714 45.3236M28.3391 93.7847H40.8736M28.0606 7.93933H41.1521" stroke="#1B2E40" stroke-width="4"/>
<path d="M59.0223 100.424H19C11.8203 100.424 6 94.6039 6 87.4242V15C6 7.82028 11.8203 2 19 2H51.4048C58.6392 2 64.4819 7.90592 64.404 15.1399L63.7613 74.8559" stroke="#1B2E40" stroke-width="4"/>
</g>
<defs>
<filter id="filter0_d_222_22" x="0" y="0" width="91.1283" height="133.178" filterUnits="userSpaceOnUse" color-interpolation-filters="sRGB">
<feFlood flood-opacity="0" result="BackgroundImageFix"/>
<feColorMatrix in="SourceAlpha" type="matrix" values="0 0 0 0 0 0 0 0 0 0 0 0 0 0 0 0 0 0 127 0" result="hardAlpha"/>
<feOffset dy="4"/>
<feGaussianBlur stdDeviation="2"/>
<feComposite in2="hardAlpha" operator="out"/>
<feColorMatrix type="matrix" values="0 0 0 0 0.85098 0 0 0 0 0.85098 0 0 0 0 0.85098 0 0 0 1 0"/>
<feBlend mode="normal" in2="BackgroundImageFix" result="effect1_dropShadow_222_22"/>
<feBlend mode="normal" in="SourceGraphic" in2="effect1_dropShadow_222_22" result="shape"/>
</filter>
</defs>
</svg>
