<svg width="238" height="114" viewBox="0 0 238 114" fill="none" xmlns="http://www.w3.org/2000/svg">
<path d="M227.782 79.5908H237.846V112.633H227.782V79.5908Z" fill="#F6F7F8" fill-opacity="0.972549"/>
<path d="M213.257 79.5908H223.321V112.633H213.257V79.5908Z" fill="#F6F7F8" fill-opacity="0.972549"/>
<path d="M195.726 87.8291C200.001 87.8291 203.267 88.794 205.523 90.7236C207.779 92.6237 208.907 95.5627 208.907 99.5409V112.633H199.556V109.427C198.398 111.861 196.097 113.078 192.653 113.078C190.724 113.078 189.076 112.752 187.71 112.099C186.374 111.416 185.35 110.51 184.638 109.382C183.955 108.225 183.613 106.933 183.613 105.508C183.613 103.103 184.534 101.278 186.374 100.031C188.215 98.7839 191.006 98.1604 194.746 98.1604H198.799C198.472 96.2604 196.943 95.3104 194.212 95.3104C193.113 95.3104 192 95.4885 190.872 95.8448C189.744 96.1713 188.779 96.6315 187.977 97.2252L184.771 90.5901C186.167 89.7291 187.844 89.0611 189.803 88.5861C191.792 88.0814 193.767 87.8291 195.726 87.8291ZM195.681 107.022C196.394 107.022 197.032 106.829 197.596 106.443C198.16 106.057 198.576 105.478 198.843 104.707V103.014H196.349C194.301 103.014 193.277 103.697 193.277 105.063C193.277 105.627 193.485 106.102 193.9 106.488C194.345 106.844 194.939 107.022 195.681 107.022Z" fill="#F6F7F8" fill-opacity="0.972549"/>
<path d="M184.577 81.4612L174.602 112.633H163.335L158.303 95.9785L153.004 112.633H141.737L131.762 81.4612H142.584L148.016 99.1847L153.761 81.4612H163.424L168.857 99.4074L174.602 81.4612H184.577Z" fill="#F6F7F8" fill-opacity="0.972549"/>
<path d="M119.198 87.8291C122.196 87.8291 124.601 88.7346 126.412 90.5456C128.253 92.3565 129.173 95.0878 129.173 98.7394V112.633H119.109V100.476C119.109 97.6855 118.114 96.2901 116.125 96.2901C114.997 96.2901 114.077 96.6909 113.364 97.4925C112.681 98.2644 112.34 99.4964 112.34 101.189V112.633H102.276V79.5908H112.34V90.2338C114.21 88.6307 116.496 87.8291 119.198 87.8291Z" fill="#F6F7F8" fill-opacity="0.972549"/>
<path d="M86.6263 113.078C84.5481 113.078 82.4997 112.856 80.4809 112.41C78.4622 111.965 76.8293 111.386 75.5825 110.674L78.3434 104.039C79.4715 104.721 80.8075 105.256 82.3513 105.642C83.895 106.028 85.3942 106.221 86.8489 106.221C88.0068 106.221 88.8083 106.132 89.2536 105.953C89.7286 105.746 89.9661 105.449 89.9661 105.063C89.9661 104.677 89.6693 104.41 89.0755 104.261C88.5114 104.113 87.5763 103.964 86.27 103.816C84.2809 103.578 82.5887 103.282 81.1934 102.925C79.7981 102.539 78.5661 101.812 77.4973 100.743C76.4582 99.6745 75.9387 98.1456 75.9387 96.1565C75.9387 94.583 76.4137 93.1729 77.3637 91.926C78.3137 90.6791 79.7239 89.6846 81.5942 88.9424C83.4942 88.2002 85.7653 87.8291 88.4075 87.8291C90.2482 87.8291 92.0443 88.0072 93.7958 88.3635C95.5771 88.69 97.0912 89.1799 98.3381 89.833L95.5771 96.4682C93.4396 95.2807 91.0943 94.687 88.5411 94.687C86.3442 94.687 85.2458 95.0729 85.2458 95.8448C85.2458 96.2307 85.5427 96.5127 86.1364 96.6909C86.7302 96.8393 87.6653 96.9877 88.9419 97.1362C90.931 97.3737 92.6083 97.6854 93.974 98.0713C95.3693 98.4573 96.5865 99.1846 97.6255 100.253C98.6943 101.322 99.2287 102.851 99.2287 104.84C99.2287 106.354 98.7537 107.735 97.8037 108.982C96.8537 110.228 95.4287 111.223 93.5287 111.965C91.6286 112.707 89.3279 113.078 86.6263 113.078Z" fill="#F6F7F8" fill-opacity="0.972549"/>
<path d="M73.9205 100.432C73.9205 100.58 73.876 101.367 73.7869 102.792H56.865C57.2212 103.712 57.815 104.425 58.6462 104.929C59.4775 105.404 60.5166 105.642 61.7634 105.642C62.8322 105.642 63.7228 105.508 64.4353 105.241C65.1775 104.974 65.9791 104.514 66.84 103.86L72.0947 109.16C69.7197 111.772 66.1721 113.078 61.4517 113.078C58.5126 113.078 55.9298 112.544 53.7032 111.475C51.4767 110.377 49.7548 108.863 48.5376 106.933C47.3204 105.003 46.7118 102.836 46.7118 100.432C46.7118 97.9971 47.3055 95.8299 48.4931 93.9299C49.7102 92.0002 51.3579 90.501 53.4361 89.4322C55.5439 88.3635 57.904 87.8291 60.5166 87.8291C62.9806 87.8291 65.2221 88.3189 67.2408 89.2986C69.2893 90.2783 70.9072 91.7182 72.0947 93.6182C73.3119 95.5182 73.9205 97.7893 73.9205 100.432ZM60.6056 94.687C59.5666 94.687 58.7056 94.969 58.0228 95.5331C57.34 96.0971 56.8947 96.8987 56.6868 97.9378H64.5244C64.3166 96.9284 63.8713 96.1416 63.1884 95.5776C62.5056 94.9838 61.6447 94.687 60.6056 94.687Z" fill="#F6F7F8" fill-opacity="0.972549"/>
<path d="M37.4861 90.9018C39.2674 88.8533 41.8948 87.8291 45.3682 87.8291V96.7354C44.5666 96.6167 43.8245 96.5573 43.1416 96.5573C39.6979 96.5573 37.976 98.3088 37.976 101.812V112.633H27.9119V88.2744H37.4861V90.9018Z" fill="#F6F7F8" fill-opacity="0.972549"/>
<path d="M10.5094 89.3878V94.7316H23.5126V102.658H10.5094V112.633H0V81.4612H25.3384V89.3878H10.5094Z" fill="#F6F7F8" fill-opacity="0.972549"/>
<path d="M117.88 0.416644C118.89 -0.142933 120.13 -0.138591 121.136 0.428095L149.385 16.344C150.392 16.911 151.011 17.9555 151.011 19.0852V50.6496C151.011 51.7711 150.4 52.8091 149.406 53.379L121.156 69.5604C120.14 70.1424 118.88 70.1467 117.859 69.5719L89.637 53.6711C88.6306 53.1041 88.0112 52.0597 88.0112 50.93V18.8048C88.0112 17.6668 88.6397 16.6161 89.6577 16.0521L117.88 0.416644ZM100.473 23.7542C100.222 23.8959 100.067 24.157 100.067 24.4394V59.5471L113.75 67.2563V60.3701C113.75 60.0858 113.907 59.8234 114.161 59.6824L137.968 46.4801C138.222 46.3391 138.379 46.0765 138.379 45.7921V31.3423C138.379 30.8487 137.823 30.5444 137.388 30.7997L114.988 43.9457C114.444 44.2648 113.75 43.8846 113.75 43.2676V30.9703C113.75 30.6885 113.904 30.4279 114.155 30.286L144.064 13.346L131.507 6.27098L100.473 23.7542Z" fill="#F37A28"/>
</svg>
