<svg width="139" height="127" viewBox="0 0 139 127" fill="none" xmlns="http://www.w3.org/2000/svg">
<g filter="url(#filter0_d_222_2322)">
<path d="M94.8506 13.9152C98.2646 13.9152 101.032 16.6827 101.032 20.0966V52.5493H96.396V38.641H77.8516V18.5513H33.036C32.1825 18.5513 31.4906 19.2431 31.4906 20.0966V100.456C31.4906 101.309 32.1825 102.001 33.036 102.001H94.8506C95.7041 102.001 96.396 101.309 96.396 100.456V98.9103H101.032V100.456C101.032 103.87 98.2646 106.637 94.8506 106.637H33.036L32.7176 106.63C29.4516 106.464 26.8545 103.763 26.8545 100.456V20.0966C26.8545 16.6827 29.6221 13.9152 33.036 13.9152H94.8506ZM82.4877 34.0049H95.7063L82.4877 19.8069V34.0049ZM96.396 27.9412V20.0966C96.396 19.2431 95.7041 18.5513 94.8506 18.5513H87.6535L96.396 27.9412Z" fill="#1B2E40"/>
<path d="M50.035 3.09791L43.8536 3.09791V0.00717453L50.035 0.00717453V3.09791ZM60.8526 3.09791L53.8984 3.09791V0.00717453L60.8526 0.00717453V3.09791ZM113.395 51.8509L103.715 40.4116L106.076 38.415L111.85 45.2393V11.522L111.857 11.4465C111.857 11.4436 111.857 11.4395 111.857 11.4344C111.859 11.4152 111.861 11.3801 111.863 11.3333C111.868 11.2395 111.874 11.0936 111.872 10.9077C111.869 10.5332 111.839 10.0049 111.736 9.40463C111.528 8.18276 111.04 6.79205 109.984 5.7359C108.061 3.8128 105.435 3.11311 102.57 3.09791C101.03 3.08979 91.5707 3.08987 82.4877 3.09187C77.9484 3.09287 73.5051 3.09363 70.1972 3.09489C68.5435 3.09552 67.1728 3.09599 66.2161 3.0964C65.7383 3.0966 65.3637 3.09779 65.1084 3.09791H64.7175C64.7172 3.09791 64.7167 3.09748 64.716 1.55254C64.7153 0.10654 64.7158 0.0131529 64.716 0.00717453L65.1069 0.00717453C65.3623 0.00706037 65.7379 0.00586992 66.2161 0.00566539C67.1729 0.00525617 68.5436 0.00478491 70.1972 0.00415624C73.5053 0.00289866 77.9484 0.00213584 82.4877 0.00113795C91.5615 -0.000856717 101.032 -0.00099815 102.585 0.00717453C105.901 0.0246547 109.457 0.837548 112.17 3.55065C113.845 5.22631 114.516 7.31334 114.783 8.88548C114.919 9.68126 114.959 10.3783 114.963 10.8806C114.965 11.1328 114.958 11.3395 114.951 11.4873C114.947 11.5607 114.944 11.62 114.94 11.6638V45.2393L120.714 38.415L123.075 40.4116L113.395 51.8509Z" fill="#5EA99A"/>
<path d="M92.6397 115.909L98.8831 115.909L98.8831 119L92.6397 119L92.6397 115.909ZM81.715 115.909L88.7386 115.909L88.7386 119L81.715 119L81.715 115.909ZM13.8034 60.8526L23.6053 73.4328L21.1681 75.3313L15.3488 67.8641L15.3488 104.918C15.3492 104.947 15.3499 104.993 15.3518 105.054C15.3556 105.177 15.3644 105.362 15.3805 105.599C15.4127 106.073 15.4767 106.749 15.6068 107.538C15.8703 109.136 16.3869 111.109 17.3741 112.817C18.2962 114.412 19.378 115.125 20.5191 115.488C21.7562 115.882 23.1217 115.892 24.7372 115.902C26.2947 115.911 39.5664 115.91 52.4602 115.908C58.9052 115.907 65.2526 115.905 69.989 115.903C72.3572 115.903 74.3232 115.902 75.6965 115.902L77.8501 115.902C77.8504 115.908 77.8511 116.001 77.8516 117.447C77.8522 118.987 77.852 118.992 77.8516 118.992L75.6981 118.992C74.3247 118.993 72.3587 118.993 69.9905 118.994C65.2539 118.995 58.9057 118.997 52.4602 118.998C39.5747 119.001 26.2867 119.001 24.7191 118.992C23.2135 118.984 21.3498 118.998 19.5804 118.434C17.7152 117.84 16.0116 116.634 14.6999 114.365C13.4534 112.21 12.8519 109.83 12.5569 108.041C12.4079 107.137 12.3334 106.361 12.2958 105.807C12.277 105.53 12.2675 105.306 12.2626 105.149C12.2602 105.071 12.2587 105.009 12.2581 104.965L12.2581 67.8626L6.43878 75.3313L4 73.4328L13.8034 60.8526Z" fill="#5EA99A"/>
<path d="M101.69 61.6697L97.9344 63.4009C97.5315 63.5866 97.0544 63.4847 96.7626 63.1506L93.772 59.7266C93.3981 59.2985 92.743 59.2677 92.3306 59.6589L87.2226 64.5039C86.8101 64.8951 86.8063 65.5511 87.2143 65.9471L90.5692 69.2029C90.8964 69.5204 90.9674 70.0191 90.7418 70.4153L87.98 75.2653C87.8021 75.5776 87.4704 75.7704 87.111 75.7704H82.8077C82.2554 75.7704 81.8077 76.2181 81.8077 76.7704V84.0638C81.8077 84.6161 82.2554 85.0638 82.8077 85.0638H87.7912C88.1796 85.0638 88.5329 85.2888 88.6973 85.6408L90.8478 90.247C91.0161 90.6076 90.9546 91.0337 90.6912 91.332L87.1052 95.392C86.7488 95.7956 86.7759 96.409 87.1666 96.7796L92.3112 101.659C92.7308 102.057 93.3996 102.017 93.769 101.572L96.7686 97.9573C97.0558 97.6111 97.5389 97.4993 97.9491 97.6842L102.796 99.8686C103.154 100.03 103.385 100.387 103.385 100.78V105.413C103.385 105.966 103.832 106.413 104.385 106.413H110.865C111.358 106.413 111.777 106.055 111.853 105.568L112.615 100.691C112.669 100.345 112.9 100.053 113.224 99.9203L117.019 98.3654C117.377 98.2185 117.788 98.2918 118.074 98.5535L121.564 101.753C121.956 102.112 122.562 102.102 122.941 101.728L128.019 96.7262C128.375 96.376 128.418 95.8174 128.12 95.417L125.058 91.3007C124.847 91.0158 124.802 90.64 124.94 90.3132L126.91 85.6731C127.066 85.3037 127.429 85.0638 127.83 85.0638H132.298C132.85 85.0638 133.298 84.6161 133.298 84.0638V76.7704C133.298 76.2181 132.85 75.7704 132.298 75.7704H127.819C127.423 75.7704 127.065 75.5374 126.905 75.176L124.974 70.8256C124.817 70.471 124.879 70.0575 125.133 69.7646L128.011 66.4472C128.363 66.0426 128.332 65.4332 127.943 65.0652L122.921 60.316C122.548 59.9635 121.969 59.9503 121.58 60.2854L118.093 63.2937C117.796 63.5498 117.377 63.6088 117.021 63.4447L113.192 61.6795C112.886 61.5385 112.672 61.253 112.622 60.9199L111.849 55.7746C111.776 55.2851 111.355 54.9231 110.86 54.9231H104.214C103.733 54.9231 103.32 55.2657 103.232 55.7386L102.254 60.9461C102.194 61.2645 101.984 61.5341 101.69 61.6697Z" stroke="#5EA99A" stroke-width="3.25"/>
<circle cx="107.553" cy="80.6682" r="10.0144" stroke="#5EA99A" stroke-width="4"/>
</g>
<defs>
<filter id="filter0_d_222_2322" x="0" y="0" width="138.923" height="127" filterUnits="userSpaceOnUse" color-interpolation-filters="sRGB">
<feFlood flood-opacity="0" result="BackgroundImageFix"/>
<feColorMatrix in="SourceAlpha" type="matrix" values="0 0 0 0 0 0 0 0 0 0 0 0 0 0 0 0 0 0 127 0" result="hardAlpha"/>
<feOffset dy="4"/>
<feGaussianBlur stdDeviation="2"/>
<feComposite in2="hardAlpha" operator="out"/>
<feColorMatrix type="matrix" values="0 0 0 0 0.85098 0 0 0 0 0.85098 0 0 0 0 0.85098 0 0 0 1 0"/>
<feBlend mode="normal" in2="BackgroundImageFix" result="effect1_dropShadow_222_2322"/>
<feBlend mode="normal" in="SourceGraphic" in2="effect1_dropShadow_222_2322" result="shape"/>
</filter>
</defs>
</svg>
