<svg width="150" height="120" viewBox="0 0 150 120" fill="none" xmlns="http://www.w3.org/2000/svg">
<g filter="url(#filter0_d_218_325)">
<path d="M42.0651 96.6209L45.4758 93.2411L46.2551 93.1887C51.1811 92.8632 54.4903 91.7362 56.9353 90.2971C59.3948 88.8494 61.1173 87.0095 62.8071 84.9994L66 87.6362C64.2264 89.746 62.1385 92.0266 59.0567 93.8406C56.1111 95.5742 52.38 96.8102 47.3199 97.2378L45.1471 99.3918L47.2644 101.295L37.53 111.75L34.4751 108.955L41.3642 101.554L14.6531 77.5369L7.04683 85.6592L4 82.8561L14.4028 71.7496L42.0651 96.6209Z" fill="#1B2E40"/>
<path d="M66.3534 55.7502C66.8069 55.7451 67.2946 55.7738 67.7618 55.8816C68.1525 55.9717 68.6728 56.1498 69.1381 56.5398L69.3329 56.7199L69.5116 56.9136C70.3812 57.9174 70.8998 59.4566 70.9866 61.0675C71.084 62.8754 70.66 64.9919 69.3662 67.0944C66.8946 71.1104 61.4724 74.7665 51.2441 76.6347C50.672 79.4512 49.0218 83.5435 44.1342 85.7496L42.4697 81.9479C46.3751 80.1852 47.2089 76.6662 47.4097 74.6275L47.5671 73.028L49.1315 72.7788C59.7917 71.0869 64.211 67.6186 65.8906 64.8895C66.7304 63.525 66.9469 62.2607 66.8949 61.295C66.8685 60.8056 66.7736 60.3997 66.6615 60.1004C66.6349 60.0296 66.6086 59.9685 66.5841 59.9162C66.5308 59.9144 66.4693 59.91 66.3987 59.9108C65.8472 59.917 65.0481 60.0159 64.0048 60.2142C61.9315 60.6084 59.2581 61.3228 56.3814 62.1076C53.5432 62.882 50.5227 63.7204 47.8752 64.318C45.3266 64.8932 42.77 65.3346 41 65.1103L41.5068 60.9821C42.4681 61.104 44.3504 60.8513 46.9869 60.2562C49.5245 59.6834 52.4368 58.8751 55.3171 58.0892C58.1589 57.3138 60.9916 56.5547 63.2499 56.1253C64.3722 55.912 65.446 55.7603 66.3534 55.7502Z" fill="#1B2E40"/>
<path d="M125.16 24.8431C126.347 24.8908 127.329 25.7997 127.468 26.9795L127.485 27.2374L127.56 33.2935L133.526 32.4917L133.794 32.4713C135.036 32.4412 136.105 33.3644 136.256 34.5976L136.274 34.8659L136.352 41.2126L143.606 41.3022C145.675 41.3276 146.765 43.7655 145.404 45.324L93.0139 105.305C91.6011 106.923 88.9381 106.042 88.7683 103.902L88.2146 96.8947L81.4491 97.7774C79.9397 97.9736 78.6244 96.7471 78.7147 95.2275L79.092 88.8594L73.2924 89.6809C71.9175 89.8753 70.6609 88.8773 70.5372 87.4943L69.9602 81.0542L64.1536 80.9837C62.8257 80.9672 61.7574 79.8861 61.7574 78.558L61.7578 70.3496L65.9163 70.3492L65.9168 76.8455L71.5765 76.9161L71.8078 76.93C72.8709 77.044 73.7366 77.8453 73.9319 78.8964L73.9628 79.1255L74.5154 85.3064L80.6097 84.4463L80.8912 84.423C82.1953 84.3892 83.2985 85.4066 83.3704 86.7093L83.3707 86.9923L82.9911 93.3817L89.4848 92.5359C90.8608 92.3569 92.1063 93.3669 92.216 94.7502L92.5889 99.469L139.803 45.4133L134.61 45.3512C133.294 45.3348 132.231 44.2716 132.215 42.9552L132.14 36.8742L126.174 37.677C124.731 37.8707 123.443 36.7586 123.425 35.3028L123.349 29.1133L115.904 29.5961C114.445 29.6904 113.234 28.4818 113.326 27.0224L113.698 21.1595L107.598 22.1045C106.14 22.3303 104.82 21.2137 104.801 19.7385L104.72 13.156L98.4646 14.0095C97.0202 14.2062 95.7296 13.0941 95.7113 11.6366L95.6697 8.2211L47.304 64.769L44.1431 62.0666L95.5024 2.01904C96.9121 0.370826 99.571 1.2669 99.7607 3.35988L99.7718 3.56638L99.8461 9.62352L106.101 8.77191L106.37 8.75053C107.614 8.71834 108.685 9.64221 108.836 10.8765L108.855 11.1467L108.935 17.689L115.193 16.7211L115.478 16.6938C116.795 16.6439 117.917 17.6693 117.986 18.9856L117.986 19.2716L117.602 25.3177L124.903 24.8463L125.16 24.8431Z" fill="#1B2E40"/>
<path d="M88.7353 30.3472L90.0819 28.7629L117.806 52.3284L116.459 53.9127L88.7353 30.3472Z" fill="#5EA99A"/>
<path d="M113.608 56.289L112.262 57.8733L84.5374 34.3078L85.8841 32.7235L113.608 56.289Z" fill="#5EA99A"/>
<path d="M98.3438 52.1169L97.0127 53.7142L80.3788 39.8526L81.7099 38.2552L98.3438 52.1169Z" fill="#5EA99A"/>
<path d="M50.8581 45.7506C52.7177 45.7586 54.501 45.814 55.8167 45.868C56.4753 45.8951 57.0188 45.9219 57.3987 45.9418C57.5887 45.9517 57.7387 45.9605 57.841 45.9663C57.8919 45.9692 57.9317 45.9716 57.9586 45.9732C57.9718 45.9739 57.9823 45.9741 57.9893 45.9745C57.9928 45.9747 57.9954 45.9758 57.9973 45.9759H58C57.9998 45.9829 57.9935 46.1005 57.8784 48.0692C57.7624 50.0549 57.7558 50.1572 57.7555 50.1624H57.7488C57.743 50.1621 57.7329 50.1618 57.7207 50.1611C57.6966 50.1597 57.6603 50.157 57.6125 50.1543C57.516 50.1488 57.3724 50.1406 57.1889 50.131C56.8219 50.1118 56.2927 50.0864 55.651 50.06C54.3658 50.0072 52.635 49.953 50.8408 49.9453C49.0375 49.9376 47.2092 49.9772 45.7179 50.1065C44.9703 50.1713 44.3486 50.2552 43.8766 50.355C43.475 50.4399 43.3034 50.5115 43.2713 50.5229L42.8812 50.867C42.6216 51.1088 42.2871 51.4358 41.8831 51.842C41.0764 52.6529 40.0332 53.7409 38.8312 55.0167C36.4296 57.566 33.4299 60.8291 30.4935 64.0521C27.5586 67.2735 24.6919 70.4473 22.5593 72.8171C21.4933 74.0016 20.6111 74.9853 19.9952 75.6723C19.6872 76.0158 19.4459 76.2863 19.2816 76.4697C19.1996 76.5613 19.1368 76.6314 19.0946 76.6786C19.0734 76.7023 19.0572 76.7199 19.0465 76.7319C19.0411 76.7379 19.0371 76.7425 19.0345 76.7455C19.0332 76.747 19.0311 76.7489 19.0304 76.7496L16 73.9204L16.0013 73.919C16.002 73.9182 16.0026 73.9164 16.004 73.9149C16.0067 73.9118 16.0107 73.9072 16.016 73.9013C16.0269 73.8891 16.0442 73.8718 16.0655 73.848C16.108 73.8005 16.1704 73.7295 16.2525 73.6377C16.4174 73.4536 16.66 73.1832 16.9687 72.8389C17.5861 72.1504 18.4702 71.1651 19.5382 69.9782C21.6742 67.6047 24.5471 64.4227 27.4898 61.1928C30.4309 57.9646 33.4488 54.6815 35.8743 52.1069C37.086 50.8207 38.1592 49.7017 39.0049 48.8516C39.78 48.0725 40.5275 47.3487 41.0052 47.0232C41.6306 46.5971 42.4145 46.3796 43.0455 46.2463C43.7395 46.0996 44.5397 45.9988 45.3718 45.9267C47.0402 45.7822 49.0071 45.7427 50.8581 45.7506Z" fill="#1B2E40"/>
<path d="M91.3339 78.9342L92.592 77.6256C91.6151 76.4385 91.1991 75.2949 91.3441 74.1949C91.489 73.0949 92.1525 71.9301 93.3347 70.7005L93.7991 70.2174L96.8555 73.1559L96.5008 73.5247C95.6339 74.4264 95.4845 75.1503 96.0524 75.6963C96.2983 75.9328 96.5501 76.0283 96.8077 75.9831C97.0712 75.9434 97.3014 75.8211 97.4984 75.6162C97.8474 75.2532 98.0176 74.707 98.009 73.9776L97.9287 69.016C97.8929 67.2015 98.3958 65.7526 99.4372 64.6694C100 64.0839 100.627 63.6953 101.319 63.5036C102.021 63.3117 102.727 63.2863 103.437 63.4275C104.158 63.5684 104.826 63.8453 105.443 64.2583L106.465 63.1956L107.985 64.6563L106.988 65.6927C107.866 66.7841 108.23 67.9287 108.081 69.1265C107.932 70.3242 107.306 71.4969 106.203 72.6445L103.068 69.6301L103.616 69.0592C103.859 68.8074 103.977 68.5495 103.972 68.2853C103.967 68.0212 103.853 67.7822 103.63 67.5683C103.384 67.3318 103.141 67.216 102.9 67.2207C102.658 67.2255 102.439 67.3303 102.242 67.5353C101.961 67.828 101.834 68.5399 101.862 69.671L101.991 74.4593C102.01 75.1655 101.904 75.8971 101.672 76.6542C101.446 77.4169 101.023 78.1203 100.404 78.7644C99.475 79.7305 98.4363 80.2191 97.2876 80.2302C96.1446 80.2355 95.0803 79.86 94.0946 79.1039L92.8533 80.395L91.3339 78.9342Z" fill="#5EA99A"/>
</g>
<defs>
<filter id="filter0_d_218_325" x="0" y="1.16528" width="150.007" height="118.584" filterUnits="userSpaceOnUse" color-interpolation-filters="sRGB">
<feFlood flood-opacity="0" result="BackgroundImageFix"/>
<feColorMatrix in="SourceAlpha" type="matrix" values="0 0 0 0 0 0 0 0 0 0 0 0 0 0 0 0 0 0 127 0" result="hardAlpha"/>
<feOffset dy="4"/>
<feGaussianBlur stdDeviation="2"/>
<feComposite in2="hardAlpha" operator="out"/>
<feColorMatrix type="matrix" values="0 0 0 0 0.85098 0 0 0 0 0.85098 0 0 0 0 0.85098 0 0 0 1 0"/>
<feBlend mode="normal" in2="BackgroundImageFix" result="effect1_dropShadow_218_325"/>
<feBlend mode="normal" in="SourceGraphic" in2="effect1_dropShadow_218_325" result="shape"/>
</filter>
</defs>
</svg>
