<svg width="355" height="379" viewBox="0 0 355 379" fill="none" xmlns="http://www.w3.org/2000/svg">
<path d="M112.587 181.293V135.81C112.587 135.257 112.14 134.81 111.587 134.81H42.5873C42.0351 134.81 41.5873 135.257 41.5873 135.81V181.293C41.5873 181.846 42.0351 182.293 42.5873 182.293H49.4623C50.0146 182.293 50.4623 182.741 50.4623 183.293V196.673C50.4623 197.521 51.4517 197.984 52.1029 197.441L69.9822 182.526C70.162 182.376 70.3887 182.293 70.6228 182.293H111.587C112.14 182.293 112.587 181.846 112.587 181.293Z" stroke="#F37A28" stroke-width="3"/>
<path d="M112.453 90.7342C143.696 64.9263 197.486 55.4032 240.412 70.9445" stroke="#F6F7F8" stroke-opacity="0.972549" stroke-width="4"/>
<circle cx="104.805" cy="96.6303" r="10.0652" transform="rotate(13.7097 104.805 96.6303)" stroke="#F6F7F8" stroke-opacity="0.972549" stroke-width="4"/>
<path d="M110.942 355.497C59.6396 319.118 39.0829 281.512 39.3906 221.278" stroke="#F6F7F8" stroke-opacity="0.972549" stroke-width="4" stroke-dasharray="13 13"/>
<path d="M335.587 175.718C334.326 148.381 297.316 139.97 297.316 139.97M297.316 139.97C297.316 139.97 294.625 132.232 295.634 128.195M297.316 139.97C294.372 142.493 286.802 150.905 280.494 150.905C276.709 150.905 269.98 145.437 264.513 139.97M295.634 128.195C285.12 135.765 277.764 135.428 266.615 128.195M295.634 128.195C300.171 122.86 302.388 120.182 303.204 112.214H308.671C312.954 111.182 311.618 96.8788 308.671 97.9146H306.148M264.513 139.97C258.625 141.232 245.587 147.961 245.587 147.961M264.513 139.97C266.615 135.765 266.615 128.195 266.615 128.195M266.615 128.195C261.77 122.071 260.109 118.08 259.466 112.214M258.625 96.2323C258.674 96.805 258.719 97.3655 258.76 97.9146M306.148 97.9146C308.835 81.6096 306.148 70.5786 297.316 65.5316C288.485 60.4846 274.606 59.6443 261.989 68.8965C254.419 75.6255 254.604 90.6249 255.959 97.9146M306.148 97.9146C305.587 99.1764 303.204 102.121 301.522 101.28C300.017 100.527 299.7 91.3263 299.419 86.1394C285.824 91.2884 276.601 91.979 265.818 83.8021C265.218 83.3472 264.332 83.6639 264.162 84.3971C262.597 91.1182 260.332 94.3618 255.959 97.9146M258.76 97.9146C259.161 103.273 259.046 108.384 259.466 112.214M258.76 97.9146H255.959M259.466 112.214C256.942 113.055 255.373 112.296 253.157 111.373C251.252 111.216 250.044 98.0056 253.157 97.9146H255.959" stroke="#F37A28" stroke-width="3"/>
<path d="M258.463 95.6668C261.258 92.8348 262.927 89.6972 264.162 84.3971C264.332 83.664 265.218 83.3472 265.818 83.8021C276.601 91.979 285.824 91.2884 299.419 86.1394C299.7 91.3263 300.017 100.527 301.522 101.28C303.204 102.121 305.587 99.1765 306.148 97.9146C308.835 81.6096 306.148 70.5786 297.316 65.5316C288.485 60.4846 274.606 59.6443 261.989 68.8965C255.44 74.7184 254.695 86.7312 255.491 94.5854C255.644 96.0951 257.397 96.7468 258.463 95.6668Z" stroke="#F6F7F8" stroke-opacity="0.972549" stroke-width="3"/>
<path d="M306.561 204.147V231.454C306.561 232.223 307.395 232.705 308.061 232.32L330.587 219.31" stroke="#F37A28" stroke-width="2"/>
<path d="M309.354 256.082C347.328 256.082 354.587 196.329 309.354 194.653" stroke="#F6F7F8" stroke-opacity="0.972549" stroke-width="3"/>
<circle cx="311.587" cy="224.81" r="41.5" stroke="#F37A28" stroke-width="3"/>
<path d="M251.961 201.633H131.021C130.468 201.633 130.021 202.081 130.021 202.633V336.292C130.021 336.844 130.468 337.292 131.021 337.292H251.961C252.513 337.292 252.961 336.844 252.961 336.292V202.633C252.961 202.081 252.513 201.633 251.961 201.633Z" fill="#F6F7F8" fill-opacity="0.972549"/>
<rect x="127.781" y="168.658" width="125.299" height="207.966" rx="7" stroke="#F37A28" stroke-width="4"/>
<path d="M174.533 188.916H207.388" stroke="#F37A28" stroke-width="3"/>
<path d="M129.623 200.422L250.841 200.573" stroke="#F37A28" stroke-width="3"/>
<path d="M174.533 357.428H207.388" stroke="#F37A28" stroke-width="3"/>
<path d="M130.021 338.351H250.841" stroke="#F37A28" stroke-width="3"/>
<path d="M188.62 228.596C189.741 227.969 191.118 227.974 192.235 228.609L223.6 246.441C224.718 247.076 225.405 248.246 225.405 249.512V284.877C225.405 286.133 224.727 287.296 223.623 287.935L192.258 306.064C191.129 306.716 189.73 306.721 188.597 306.077L157.262 288.262C156.144 287.627 155.457 286.456 155.457 285.191V249.198C155.457 247.923 156.154 246.746 157.285 246.114L188.62 228.596ZM169.293 254.743C169.014 254.902 168.842 255.194 168.842 255.511V294.845L184.034 303.483V295.767C184.034 295.449 184.208 295.155 184.491 294.997L210.923 280.205C211.205 280.047 211.38 279.753 211.38 279.434V263.245C211.38 262.692 210.763 262.351 210.28 262.637L185.409 277.366C184.805 277.723 184.034 277.297 184.034 276.606V262.828C184.034 262.512 184.205 262.22 184.483 262.061L217.692 243.082L203.75 235.155L169.293 254.743Z" fill="#F37A28"/>
<path d="M331.801 297.925C321.835 324.956 303.82 341.454 270.513 361.022" stroke="#F6F7F8" stroke-opacity="0.972549" stroke-width="4"/>
<circle cx="335.551" cy="288.529" r="10.0652" transform="rotate(-4.80611 335.551 288.529)" stroke="#F6F7F8" stroke-opacity="0.972549" stroke-width="4"/>
</svg>
