<svg width="63" height="70" viewBox="0 0 63 70" fill="none" xmlns="http://www.w3.org/2000/svg">
<path d="M29.8685 0.416644C30.8785 -0.142933 32.119 -0.138592 33.1248 0.428095L61.3743 16.344C62.3807 16.911 63 17.9555 63 19.0852V50.6496C63 51.7711 62.3893 52.8091 61.3943 53.379L33.1452 69.5604C32.1291 70.1424 30.8685 70.1467 29.8481 69.5719L1.62575 53.6711C0.619368 53.1041 0 52.0597 0 50.93V18.8048C7.32985e-06 17.6668 0.628468 16.6161 1.64647 16.0521L29.8685 0.416644ZM12.4618 23.7542C12.2103 23.8959 12.0554 24.157 12.0554 24.4394V59.5471L25.7385 67.2563V60.3701C25.7386 60.0858 25.8955 59.8234 26.1497 59.6824L49.9564 46.4801C50.2107 46.3391 50.3679 46.0765 50.3679 45.7921V31.3423C50.3679 30.8487 49.8123 30.5444 49.3772 30.7997L26.9766 43.9457C26.4327 44.2648 25.7385 43.8846 25.7385 43.2676V30.9703C25.7385 30.6885 25.8927 30.4279 26.1433 30.286L56.053 13.346L43.4955 6.27098L12.4618 23.7542Z" fill="#F37A28"/>
</svg>
